<svg xmlns="http://www.w3.org/2000/svg" xmlns:xlink="http://www.w3.org/1999/xlink" viewBox="0 0 545.43 656.97"><defs><style>.cls-1{mask:url(#mask);filter:url(#luminosity-noclip-3);}.cls-12,.cls-13,.cls-14,.cls-16,.cls-18,.cls-2,.cls-4{mix-blend-mode:multiply;}.cls-2{fill:url(#linear-gradient);}.cls-3{mask:url(#mask-2);filter:url(#luminosity-noclip-4);}.cls-4{fill:url(#linear-gradient-2);}.cls-5{isolation:isolate;}.cls-6{fill:#171617;}.cls-7{fill:#f1f2f2;}.cls-8{fill:#c9c7c8;}.cls-9{fill:#222;}.cls-10{fill:#f68d63;}.cls-11,.cls-14{fill:#ffd6a1;}.cls-12{fill:#919191;opacity:0.19;}.cls-15{mask:url(#mask-3);}.cls-16{fill:url(#linear-gradient-3);}.cls-17{mask:url(#mask-4);}.cls-18{fill:url(#linear-gradient-4);}.cls-19{filter:url(#luminosity-noclip-2);}.cls-20{filter:url(#luminosity-noclip);}</style><filter id="luminosity-noclip" x="194.96" y="-8520.49" width="42.99" height="32766" filterUnits="userSpaceOnUse" color-interpolation-filters="sRGB"><feFlood flood-color="#fff" result="bg"/><feBlend in="SourceGraphic" in2="bg"/></filter><mask id="mask" x="194.96" y="-8520.49" width="42.99" height="32766" maskUnits="userSpaceOnUse"><g class="cls-20"/></mask><linearGradient id="linear-gradient" x1="216.46" y1="330.17" x2="216.46" y2="296.53" gradientUnits="userSpaceOnUse"><stop offset="0.01"/><stop offset="1" stop-color="#fff"/></linearGradient><filter id="luminosity-noclip-2" x="269.84" y="-8520.49" width="42.99" height="32766" filterUnits="userSpaceOnUse" color-interpolation-filters="sRGB"><feFlood flood-color="#fff" result="bg"/><feBlend in="SourceGraphic" in2="bg"/></filter><mask id="mask-2" x="269.84" y="-8520.49" width="42.99" height="32766" maskUnits="userSpaceOnUse"><g class="cls-19"/></mask><linearGradient id="linear-gradient-2" x1="308.39" y1="336.65" x2="308.39" y2="303.01" gradientTransform="matrix(-1, 0, 0, 1, 599.72, 0)" xlink:href="#linear-gradient"/><filter id="luminosity-noclip-3" x="194.96" y="286.93" width="42.99" height="44.38" filterUnits="userSpaceOnUse" color-interpolation-filters="sRGB"><feFlood flood-color="#fff" result="bg"/><feBlend in="SourceGraphic" in2="bg"/></filter><mask id="mask-3" x="194.96" y="286.93" width="42.99" height="44.38" maskUnits="userSpaceOnUse"><g class="cls-1"><path class="cls-2" d="M195,331.31l2.6-35.39s20.47-13.37,39.52-7.5l.87.39L237.08,329Z"/></g></mask><linearGradient id="linear-gradient-3" x1="216.46" y1="330.17" x2="216.46" y2="296.53" gradientUnits="userSpaceOnUse"><stop offset="0.01" stop-color="#ffd6a1"/><stop offset="1" stop-color="#ffd6a1"/></linearGradient><filter id="luminosity-noclip-4" x="269.84" y="293.41" width="42.99" height="44.38" filterUnits="userSpaceOnUse" color-interpolation-filters="sRGB"><feFlood flood-color="#fff" result="bg"/><feBlend in="SourceGraphic" in2="bg"/></filter><mask id="mask-4" x="269.84" y="293.41" width="42.99" height="44.38" maskUnits="userSpaceOnUse"><g class="cls-3"><path class="cls-4" d="M312.83,337.79l-2.59-35.39s-20.48-13.37-39.53-7.5l-.87.39.87,40.22Z"/></g></mask><linearGradient id="linear-gradient-4" x1="308.39" y1="336.65" x2="308.39" y2="303.01" gradientTransform="matrix(-1, 0, 0, 1, 599.72, 0)" xlink:href="#linear-gradient-3"/></defs><title>chef</title><g class="cls-5"><g id="Layer_3" data-name="Layer 3"><path class="cls-6" d="M293.38,619.38,292.82,645l70.39-1.7c-22.69-22.79-57.65-7.89-58-7.74l-2.38,1-4.75-17.81Z"/><path class="cls-7" d="M205,469.29c.3-1.15.61-2.31,1-3.45.22-.67.43-1.33.66-2-10.39,9.3-30.08,27.45-37.74,38.1-9.55,13.29-9.24,86.88-9.12,99.15l1.84.84c.57-15.09,3.47-85.38,8.7-94.95S199.71,474.28,205,469.29Z"/><path class="cls-6" d="M183.6,614.37l3.7,17.92-4-1.79a64.13,64.13,0,0,0-21.06-4.58c-13.91-.59-25.48,3.77-34.46,13l69.55,1.68-8.44-24.81Q186.16,615.06,183.6,614.37Z"/><path class="cls-8" d="M239.19,556.75a2.7,2.7,0,1,0,2.7,2.7A2.7,2.7,0,0,0,239.19,556.75Z"/><path class="cls-8" d="M179.16,553a2.7,2.7,0,1,0,2.7,2.7A2.7,2.7,0,0,0,179.16,553Z"/><path class="cls-8" d="M190,503.29a2.7,2.7,0,1,0,2.69,2.69A2.7,2.7,0,0,0,190,503.29Z"/><path class="cls-7" d="M144.67,392.89a157.71,157.71,0,0,1,19.64-14.13c-8.77-6.37-34.24-25.13-46.42-36.89L115.55,340c-4.09,9.15-18.14,38.75-34.49,52.39.88.78,2,1.79,3.4,2.95l1-.69c.64-.48,1.44-1.06,2.31-1.76l1.4-1.13,1.52-1.31c1.07-.89,2.15-1.95,3.33-3l1.75-1.74c.59-.6,1.21-1.2,1.79-1.86l1.8-2c.62-.67,1.17-1.39,1.77-2.09s1.21-1.41,1.77-2.16l1.69-2.24c1.17-1.47,2.16-3.08,3.21-4.6.26-.39.53-.76.77-1.15l.7-1.18,1.38-2.31c.22-.38.46-.75.67-1.13l.59-1.15,1.15-2.21c.79-1.43,1.38-2.85,2-4.14s1.14-2.48,1.53-3.57l1-2.81c.57-1.56.89-2.46.89-2.46l-.71,2.52c-.22.8-.5,1.77-.82,2.89s-.8,2.33-1.26,3.68-1,2.83-1.66,4.32l-1,2.32-.51,1.2c-.19.4-.39.79-.59,1.2l-1.23,2.44c-.21.41-.41.83-.62,1.25s-.46.81-.69,1.22c-1,1.63-1.85,3.34-2.93,4.93L104.84,379c-.53.8-1.1,1.56-1.65,2.33s-1.08,1.56-1.66,2.28l-1.7,2.16c-.55.72-1.14,1.39-1.71,2l-1.67,1.94c-1.13,1.21-2.17,2.39-3.22,3.4l-1.48,1.48L90.37,396c-.87.81-1.66,1.48-2.31,2l-.2.17c6.19,5,14.77,11.34,22.64,14.86A122.26,122.26,0,0,0,144.67,392.89Z"/><path class="cls-9" d="M218.27,434.66c16.84-18.46,23.12-37.85,22.38-45.07-10.45-1.86-18-7.46-18.85-14.39-2.06-1.29-8.23-4.52-18.19-4.53h0c-11.55,0-30.64,4.46-56.06,25.64C126.05,414.2,99.67,424,77.11,424c-11.11,0-21.29-2.38-29.51-7.36-9.72-5.89-19.79-17.06-21.73-38.17-1.38,15.36-.16,34,9,50.35,11.51,20.58,33.28,33.88,64.72,39.52C165.32,480.18,202.16,452.32,218.27,434.66Z"/><path class="cls-8" d="M242.94,508.45a2.7,2.7,0,1,0,2.7,2.69A2.7,2.7,0,0,0,242.94,508.45Z"/><path class="cls-10" d="M248.34,362.12c-12,0-22.16,5.42-22.16,11.84s10.14,11.84,22.16,11.84S270.5,380.38,270.5,374,260.35,362.12,248.34,362.12Z"/><path class="cls-8" d="M250.17,476.39v0h0l0,.06Z"/><path class="cls-9" d="M466.84,361.82a54.36,54.36,0,0,1-1.09,19c-3.29,13.79-12.2,26.74-25.1,36.48-26.87,20.29-68.89,24.9-92.69-2.52C326.2,389.75,307,380.56,294.8,377.27c-10-2.7-17.13-2-20-1.48-1.09,6.22-7.67,11.29-16.82,13.4,3.91,7.6,18.57,34.36,42.07,56.92,36.64,35.18,76.28,44,117.83,26.25C448.42,459.3,467,441,473.1,417.91,478.4,397.85,473.33,377.4,466.84,361.82Z"/><path class="cls-7" d="M512.3,186.76c-7.93-7.19-20.77-24-37-45.2C437.32,92,380,17.05,340.86,11c-25.61-4-75.7.45-125.18,19.58C161.08,51.65,126,84.08,117,121.84c-8.63,36.06.08,68.46,25.89,96.31a152,152,0,0,0,39.26,30c4.74-26.41,10.9-52.63,18.82-74h-1.61c-.69,0-1.37,0-2,0l-2-.09-2-.18c-1.32-.1-2.62-.29-3.9-.47a70.68,70.68,0,0,1-7.27-1.48c-2.29-.58-4.41-1.27-6.33-2a62.06,62.06,0,0,1-9-4.08,31.84,31.84,0,0,1-3.17-2l.92.32c.6.21,1.48.49,2.6.84s2.5.73,4.06,1.16,3.35.84,5.3,1.26,4.05.82,6.3,1.16,4.6.62,7.05.84,5,.34,7.56.33c1.29.05,2.58,0,3.88,0l1.4-.08c0-.12.09-.23.14-.35l.75.3,1.61-.12c2.6-.23,5.19-.54,7.71-1l1.89-.34,1.85-.41,1.84-.42,1.79-.48,1.76-.47,1.71-.54,1.67-.52c.55-.19,1.08-.4,1.62-.59,2.14-.72,4.1-1.58,6-2.33l2.59-1.19c.83-.37,1.62-.73,2.33-1.11s1.4-.73,2-1l.92-.45.8-.46c1-.58,1.85-1,2.4-1.31l.87-.46-.71.67c-.48.42-1.16,1.06-2.06,1.84s-2,1.65-3.36,2.66c-.65.52-1.38,1-2.16,1.53l-2.46,1.61c-1.78,1-3.71,2.16-5.86,3.14-.53.26-1.07.53-1.62.77l-1.71.7-1.74.71-1.82.62-1.86.63-1.91.53-1.94.53-2,.42a66.22,66.22,0,0,1-7.9,1.17c-10.69,28.18-18.21,65.31-23.4,100.15,7.47-3.23,26.1-10.08,51.48-10.94a153.27,153.27,0,0,1,56.47,8.79c22.11,7.81,43.25,20.81,62.88,38.62a327.86,327.86,0,0,1,10.11-33,315,315,0,0,1,19.82-44c-.85-.88-1.63-1.81-2.4-2.74a53.08,53.08,0,0,1-4.23-5.86,57.11,57.11,0,0,1-3.25-5.9,58.2,58.2,0,0,1-2.25-5.58,47.07,47.07,0,0,1-1.37-4.88,37.16,37.16,0,0,1-.7-3.82c0-.23-.06-.44-.08-.64l-.43,0c-.69,0-1.38,0-2.08,0l-2.11,0-4.32,0-2.19,0c-.74,0-1.48-.08-2.22-.11l-4.51-.3-2.29-.16-1.16-.08-1.15-.14-4.65-.58-2.36-.3c-.78-.09-1.57-.19-2.36-.35-3.13-.59-6.34-1.07-9.51-1.84l-4.77-1.17-2.4-.59-2.36-.71-4.75-1.44-1.19-.36-1.17-.42-2.34-.84c-1.55-.58-3.12-1.13-4.66-1.74L299.34,191l-2.28-1c-.75-.33-1.48-.71-2.22-1.06l-4.42-2.15A153.75,153.75,0,0,1,274,177c-2.6-1.7-5-3.53-7.42-5.33-1.2-.88-2.31-1.86-3.45-2.77s-2.27-1.8-3.32-2.76a159.28,159.28,0,0,1-11.57-11c-3.37-3.61-6.35-7-8.81-10.2s-4.52-6-6.11-8.38-2.75-4.33-3.52-5.66-1.14-2.06-1.14-2.06.44.69,1.34,1.93,2.25,3,4,5.27,4,4.87,6.69,7.81l2.08,2.25c.74.76,1.49,1.54,2.27,2.33s1.57,1.61,2.41,2.42,1.68,1.66,2.56,2.5c1.81,1.63,3.63,3.39,5.65,5.07,1,.84,2,1.75,3,2.6l3.19,2.6c4.38,3.43,9.12,6.89,14.24,10.15l1.92,1.23c.63.42,1.28.83,1.95,1.21l4,2.34c1.33.81,2.75,1.5,4.14,2.24s2.77,1.52,4.2,2.21l4.31,2c.73.34,1.44.7,2.18,1l2.22.93,4.46,1.86c1.5.58,3,1.1,4.54,1.65l2.27.84,1.14.42,1.15.36,4.61,1.43,2.3.71,2.33.59,4.64,1.18c1.53.43,3.1.67,4.64,1l4.6.95c.76.17,1.53.28,2.3.39l2.29.35,4.53.67c3,.41,6,.58,8.89.92.73.06,1.45.17,2.17.2l2.16.1,4.23.2,2.07.1c.69,0,1.37.07,2.05.05l4,0h5.75l1.85-.1c4.86-.29,9.35-.39,13.29-.88s7.42-.64,10.24-1.12,5.06-.7,6.58-.91l2.34-.31-2.29.55c-1.49.35-3.68.9-6.48,1.54s-6.22,1.27-10.17,1.94c-2,.32-4.07.76-6.31,1l-7,.77-1.86.2-1.91.11-3.92.22-2.87.14c.06.15.11.3.18.46.37,1,.86,2.17,1.45,3.51s1.31,2.82,2.13,4.4,1.78,3.26,2.82,5,2.24,3.51,3.56,5.28c.64.9,1.36,1.76,2,2.66.37.43.73.87,1.1,1.31s.73.88,1.12,1.3l1.16,1.3c.39.42.81.83,1.21,1.25.79.86,1.65,1.66,2.5,2.47s1.74,1.56,2.6,2.35,1.8,1.48,2.69,2.21l2.75,2.07,2.76,1.91,2.76,1.75c.9.57,1.82,1.06,2.7,1.59s1.76,1,2.61,1.43,1.66.92,2.47,1.3c1.62.78,3.08,1.56,4.43,2.13s2.5,1.18,3.49,1.56,1.74.76,2.27,1l.8.37-.87-.12c-.56-.09-1.4-.2-2.46-.38s-2.33-.44-3.78-.8-3.09-.8-4.86-1.35c-.89-.26-1.78-.63-2.72-1s-1.91-.7-2.88-1.15-2-.87-3-1.37-2-1-3-1.6l-3-1.83c-1-.68-2-1.36-3-2.07s-2-1.48-2.93-2.29c-.73-.65-1.48-1.28-2.21-1.94a326.65,326.65,0,0,0-23.39,55.57c89.56,45.55,133.12-3.75,144.35-20,10.12-14.61,16.14-31.79,17-48.37C525.16,208,520.76,194.43,512.3,186.76Z"/><path class="cls-7" d="M334.22,475.68c-12.86-6.08-25.38-14.92-37.35-26.44-25.39-24.4-40.65-53.57-43.49-59.27a43.5,43.5,0,0,1-5,.29q-1.64,0-3.21-.12c.3,9.65-6.9,29.24-23.57,47.52a113.24,113.24,0,0,1-46.89,30.85,123.15,123.15,0,0,1-13.66,3.9c-2.09,12.47-11.5,71.79-10.83,123.58,1.14.72,3.33,2,6.59,3.65-.15-16.1-.18-85.7,9.69-99.45,9.4-13.07,35.52-36.31,42.92-42.79a57.49,57.49,0,0,1,3-5.18A87.31,87.31,0,0,1,225.08,437c2.37-2.28,4.8-4.48,7.32-6.58s5.09-4.13,7.79-6c1.33-.95,2.69-1.87,4.09-2.74a28.48,28.48,0,0,1,4.46-2.33,4.18,4.18,0,0,1,.68-.2,1.7,1.7,0,0,1,.42-.06.91.91,0,0,1,.28,0l.17,0,.23.09.11.06.12.1.06.05.13.13a2.24,2.24,0,0,1,.3.47,2.64,2.64,0,0,1,.23.8,7.55,7.55,0,0,1-.19,2.72,25.43,25.43,0,0,1-1.68,4.77c-.54,1.19-1.14,2.34-1.77,3.48l1.19.82c1.75,1.21,4.28,2.9,7.34,4.9s6.65,4.28,10.55,6.66c1.94,1.21,4,2.4,6,3.63l6.3,3.64c2.14,1.17,4.25,2.38,6.38,3.5s4.19,2.26,6.25,3.26,4,2,5.91,2.91,3.69,1.76,5.37,2.48l4.59,2c1.37.59,2.59,1,3.58,1.42l3.14,1.22-3.2-1c-1-.34-2.27-.71-3.67-1.22l-4.71-1.71c-1.72-.64-3.55-1.41-5.51-2.18s-4-1.69-6.1-2.59-4.26-1.92-6.46-2.91-4.39-2.1-6.61-3.15l-6.54-3.29c-2.13-1.13-4.26-2.2-6.27-3.31-4.06-2.16-7.81-4.27-11-6.1s-5.83-3.4-7.68-4.52l-1.1-.68c-.31.48-.62,1-.94,1.43-1.63,2.43-3.4,4.75-5.24,7q1.81,3,3.55,6c1.33,2.3,2.62,4.64,3.87,7s2.47,4.75,3.62,7.18a73.3,73.3,0,0,1,3.16,7.57c.22.67.44,1.35.62,2.07a12.7,12.7,0,0,1,.37,2.42,5.33,5.33,0,0,1-.22,1.73,3.28,3.28,0,0,1-.69,1.24l-.16.18-.09.1-.22.21c-.15.13-.31.25-.47.37a3.36,3.36,0,0,1-.43.25,4.34,4.34,0,0,1-.84.36,5.79,5.79,0,0,1-1.58.26,11.52,11.52,0,0,1-4.84-1.09,27.64,27.64,0,0,1-3.83-2.11,37.06,37.06,0,0,1-4.76-3.75l.84,3.16c.39,1.48.74,3,1.11,4.46.73,3,1.43,5.95,2.08,9,.12.56.24,1.12.35,1.68l.09,0,2.19.84c1.89.71,4.62,1.71,7.92,2.84s7.16,2.41,11.32,3.71c2.08.65,4.25,1.28,6.44,1.93s4.45,1.27,6.7,1.86,4.5,1.2,6.73,1.71,4.43,1.07,6.57,1.51,4.19.92,6.17,1.26,3.82.75,5.56,1l4.72.73c1.4.2,2.64.33,3.65.45l3.19.38-3.21-.19c-1-.06-2.26-.11-3.68-.23l-4.77-.45c-1.75-.13-3.63-.43-5.63-.66s-4.09-.57-6.26-.9-4.41-.72-6.68-1.12-4.57-.87-6.87-1.32-4.58-1-6.84-1.46-4.47-1-6.6-1.56c-4.27-1.05-8.24-2.1-11.63-3.05s-6.21-1.79-8.18-2.4l0,.32a6,6,0,0,1,.05.69v.76a8.57,8.57,0,0,1-.22,1.47,5.66,5.66,0,0,1-1.54,2.8,5.45,5.45,0,0,1-2.81,1.47,7.91,7.91,0,0,1-2.82.06A11.38,11.38,0,0,1,232,504a21.26,21.26,0,0,1-7.9-5.6,30.63,30.63,0,0,1-2.92-3.72,36.44,36.44,0,0,1-2.32-4.07c-.41-.82-.77-1.66-1.11-2.51.21,1.09.41,2.18.57,3.29a47.6,47.6,0,0,1,.48,5,15.18,15.18,0,0,1-.61,5.25,3.78,3.78,0,0,1-.3.7l-.18.35-.25.36a4,4,0,0,1-.64.66,2,2,0,0,1-.4.28l-.22.12-.11.06c-.08,0,.09,0-.19.07h0l-.29.1a1.46,1.46,0,0,1-.17,0l-.27.05-.55,0c-.15,0-.3,0-.44,0a5,5,0,0,1-1.59-.41,11.29,11.29,0,0,1-4.26-3.63,24.63,24.63,0,0,1-4.12-9.53,38.67,38.67,0,0,1-.86-10.16,52.6,52.6,0,0,1,.64-6.28c-8.31,8-26.81,26.24-31,34-4.38,8-7.47,69.66-8.37,94.79a176.8,176.8,0,0,0,31,9.51c28.25,6,75.64,9.87,141.47-6C336.39,593.42,332.67,511.67,334.22,475.68ZM179.16,562.85a7.15,7.15,0,1,1,7.15-7.15A7.16,7.16,0,0,1,179.16,562.85ZM190,513.14A7.16,7.16,0,1,1,197.1,506,7.17,7.17,0,0,1,190,513.14Zm49.24,53.46a7.15,7.15,0,1,1,7.15-7.15A7.16,7.16,0,0,1,239.19,566.6Zm3.75-48.31a7.15,7.15,0,1,1,7.15-7.15A7.15,7.15,0,0,1,242.94,518.29Z"/><path class="cls-11" d="M114.23,333.23c2.5-4.44,6-15.16,4.58-18.62-.13-.33-.17-.33-.39-.33-3.71,0-9,10.3-11.5,17.27l-.63,1.8L98,331.79h0c-.69.63-1.73,1.58-3,2.78-2.32,2.2-5.35,5.22-8.26,8.36-1.46,1.57-2.88,3.17-4.19,4.7-.67.76-1.29,1.5-1.87,2.22s-1.15,1.38-1.64,2l-1.37,1.72c-.39.53-.73,1-1,1.36-.56.76-.89,1.19-.89,1.19l.73-1.29c.24-.41.52-.91.84-1.48l1.14-1.9c.41-.7.87-1.44,1.37-2.23s1-1.62,1.58-2.46c1.11-1.7,2.33-3.49,3.59-5.25,2.51-3.54,5.17-7,7.23-9.51,1-1.27,1.91-2.32,2.53-3l.23-.25c-.79-5.25-3.33-16.61-7.85-19.41A3.4,3.4,0,0,0,84,309a3.8,3.8,0,0,0-2.26,2.19c-1.72,3.73-1.26,10.73.7,16.79,1.09,3.35,2,6.5,2.55,8.35a1.75,1.75,0,0,1-1.72,2.26,1.38,1.38,0,0,1-1.19-.89c-1.37-2.9-2.29-4.41-4-8.54-1.64-3.92-3.65-7.25-5.74-8.11a2.4,2.4,0,0,0-2.44.37c-5.6,3.65-.43,18.59,2.92,26.14l0,0A1.8,1.8,0,0,1,72,350c-1.44.63-2.84-.72-3.15-1.43-3.08-6.07-5.26-5.81-5.68-5.85a1.14,1.14,0,0,0-.72.22c.06,20.78,16.57,38.25,20.16,41.81C99,367.8,114.23,333.23,114.23,333.23Z"/><path class="cls-11" d="M211.26,462.54a70.43,70.43,0,0,0-2.73,9,50.77,50.77,0,0,0-1.41,9.29,39.29,39.29,0,0,0,.49,9.27,26.17,26.17,0,0,0,1.19,4.42,19,19,0,0,0,2,4,8.38,8.38,0,0,0,2.89,2.86,2.69,2.69,0,0,0,.75.26l.16,0h.06l0,0s.09,0,.13,0l.24-.06,0,0s.08,0,.11-.05.15-.1.22-.2l.12-.14.11-.18a2.48,2.48,0,0,0,.22-.4,13.59,13.59,0,0,0,.81-4.36,45,45,0,0,0,0-4.79c-.15-3.21-.47-6.45-.91-9.67L215.5,480l1.52,3.88c.31.69.6,1.39.92,2.07a38.83,38.83,0,0,0,2.14,4,34.64,34.64,0,0,0,2.58,3.64,34.22,34.22,0,0,0,3,3.23,23.38,23.38,0,0,0,3.45,2.64,15.3,15.3,0,0,0,3.78,1.78,6.84,6.84,0,0,0,3.65.23,2.26,2.26,0,0,0,1.15-.68,2.22,2.22,0,0,0,.53-1.19,5.07,5.07,0,0,0,.07-.8l0-.38a2.93,2.93,0,0,0,0-.45l-.1-.57,0-.14v-.12s0-.11,0,.08l-.07-.28-.26-1.1c-.35-1.46-.73-2.92-1.11-4.38-.76-2.94-1.56-5.86-2.39-8.78-1.67-5.84-3.33-11.71-5.1-17.51l-4.5-14.8,8.76,12.81a41.77,41.77,0,0,0,4.74,5.81,38.05,38.05,0,0,0,5.69,4.81,21.19,21.19,0,0,0,3.1,1.79,7.58,7.58,0,0,0,2.82.79,1.46,1.46,0,0,0,.37,0h0v0a7.23,7.23,0,0,0-.21-1.51c-.12-.57-.28-1.16-.46-1.75a71.76,71.76,0,0,0-2.78-7.19c-1.06-2.39-2.18-4.76-3.32-7.13s-2.35-4.72-3.54-7.08-2.42-4.7-3.64-7l-.54-1,.72-.76a92.56,92.56,0,0,0,6.3-7.28,53.46,53.46,0,0,0,5.23-8,21.56,21.56,0,0,0,1.76-4.35,6.22,6.22,0,0,0,.25-2.12,1.11,1.11,0,0,0-.09-.37c0-.08,0,0,0-.06l0,0-.11,0a4.13,4.13,0,0,0-.5.13,24.14,24.14,0,0,0-4.21,2.13c-1.38.83-2.73,1.72-4,2.64a92.09,92.09,0,0,0-7.56,6.07,90.22,90.22,0,0,0-6.86,6.83A85.91,85.91,0,0,0,215.3,454c-.72,1.3-1.41,2.63-2.05,4h0l0,0Q212.15,460.23,211.26,462.54Z"/><path class="cls-11" d="M338.47,398.52a175.74,175.74,0,0,1,12.27,12.72c9.5.9,16.52-6.34,17.91-14.09.43-2.43,1.13-10.52-8.23-12.57C345.47,381.29,339.74,394.83,338.47,398.52Zm7.66-4a14.57,14.57,0,0,1,1.42-1.41c.27-.23.55-.44.84-.66a7.28,7.28,0,0,1,.91-.62c.32-.18.63-.39,1-.57l1-.46a14.12,14.12,0,0,1,2.14-.71,6.86,6.86,0,0,1,1.08-.21c.37,0,.72-.1,1.07-.13a15.12,15.12,0,0,1,2,0,9.52,9.52,0,0,1,1.77.27,7.3,7.3,0,0,1,1.44.39c.42.15.78.32,1.07.44.58.26.89.44.89.44s-.37.08-1,.15c-.31,0-.68.08-1.1.1s-.89.14-1.39.2a14.3,14.3,0,0,0-1.59.24c-.55.14-1.13.2-1.71.37s-1.19.29-1.78.52a16.24,16.24,0,0,0-1.76.66l-.88.37-.84.43c-.58.26-1.09.61-1.63.89s-1,.63-1.49,1-.92.62-1.32.93-.78.59-1.12.84-.63.49-.86.69l-.77.63a5.47,5.47,0,0,1,.29-1,10.35,10.35,0,0,1,.46-1.06A11.48,11.48,0,0,1,345,396,12,12,0,0,1,346.13,394.54Z"/><path class="cls-11" d="M352.05,315.43c-44.62-41.36-88.8-48.88-118-47.9-28.37,1-48.4,9.83-52.39,11.74-6.35,44.28-9,83.89-9.63,95.26,11.07-5.52,21.61-8.31,31.55-8.31H204a40.43,40.43,0,0,1,18.31,4.17c2.59-7.37,13.08-12.73,26-12.73a41.64,41.64,0,0,1,11.44,1.54,25.84,25.84,0,0,1,14,9.93,11.56,11.56,0,0,1,.8,2.17c3.62-.57,10.95-1.07,21,1.56,9.7,2.55,23.48,8.56,39.33,22.43a27,27,0,0,1,10.27-12.66C344.22,358.66,347.4,335.55,352.05,315.43ZM238,288.81s-.71.07-1.88.06c-.29,0-.62,0-1,0H234c-.81,0-1.69,0-2.65.06l-3.06.1c-.54,0-1.09.07-1.66.08s-1.14.06-1.72.07-1.19,0-1.8,0-1.22,0-1.85,0a32.59,32.59,0,0,0-3.78.35c-1.27.18-2.53.44-3.77.72s-2.45.6-3.61.94-2.29.72-3.35,1.08-2.06.74-3,1.11c-1.83.73-3.3,1.46-4.34,2s-1.61.84-1.61.84l-.25-.37a41.33,41.33,0,0,1,5.49-3.85,52.71,52.71,0,0,1,6.12-3.22c1.16-.53,2.38-1,3.65-1.48s2.56-.87,3.89-1.21,2.67-.7,4-1c.67-.15,1.34-.27,2-.38s1.33-.14,2-.2,1.3,0,1.93,0,1.25.1,1.85.17a25,25,0,0,1,3.32.67,21.63,21.63,0,0,1,2.7.93c.78.36,1.45.68,2,1a18.15,18.15,0,0,1,1.62,1.06Zm72.17,14s-.57-.32-1.61-.84-2.51-1.22-4.34-1.95c-.91-.38-1.91-.75-3-1.12s-2.17-.74-3.35-1.07-2.38-.64-3.61-.94-2.5-.54-3.77-.72a30.53,30.53,0,0,0-3.78-.35c-.63,0-1.25,0-1.85,0s-1.21,0-1.8,0-1.16,0-1.72-.07l-1.66-.08-3.06-.1c-1,0-1.84,0-2.65-.07h-1.12c-.35,0-.68,0-1,0-1.17,0-1.88-.06-1.88-.06l-.14-.42a19.34,19.34,0,0,1,1.62-1.07c.53-.31,1.2-.62,2-1a20.79,20.79,0,0,1,2.71-.93,23.46,23.46,0,0,1,3.32-.67c.6-.07,1.22-.13,1.85-.17s1.27,0,1.93,0,1.31.11,2,.21,1.33.23,2,.37c1.33.3,2.68.63,4,1s2.63.78,3.89,1.22,2.49.95,3.65,1.47a52.67,52.67,0,0,1,6.12,3.23,41.33,41.33,0,0,1,5.49,3.85Z"/><path class="cls-12" d="M184.64,239.57s-32.28-14.47-50.09-46.75,17.59-34.65,32.57-27.81,52.53,3.89,62.86-34.25c0,0,77.49,68.32,182.51,66.86,0,0-13.41,27.29,7.95,54.66,0,0,19.73,57.23-57.38,40.07l15.29-46.1s-98-2.22-134.7-60.11C243.65,186.14,194.66,192.82,184.64,239.57Z"/><g class="cls-13"><path class="cls-12" d="M466.84,361.82c19.4,60.84-30.29,105.91-88.18,108.38s-111.33-79.66-111.33-79.66a29.39,29.39,0,0,0,4.95-15.34l-2.48-3s-10.88,9.4-23.25,10.39-28.21-10.39-28.21-10.39,40.08,73.23-81.14,86.1C18.09,471,24.6,372.8,24.87,369.36,13.57,497.9,159.46,471.68,159.46,471.68L157,484.05a109.67,109.67,0,0,0,49.79-14.25c2.6-8.75,13.29-37.64,44.16-50.23l.52-.21.26-.11,2.62-1.06.54-.23.29-.12,3.52-1.43,2.36-1,1.91-.78,2.09-.85.15-.07.37-.15.44-.17.18-.08.51-.21.46-.18h0l-.46.18-.51.21-.18.08-.44.17-.37.15-.15.07-2.09.85-1.91.78-2.36,1-3.52,1.43-.29.12-.54.23-2.62,1.06-.26.11-.52.21s-1.24,4.55-3.84,13.27c-.33,1.12-.61,2.2-.85,3.25a107.09,107.09,0,0,0,8.21-11.41C275.24,463.77,335.61,489,335.61,489V474.16c11.38,8.41,47,17.32,89.56-3C507.52,431.93,466.84,361.82,466.84,361.82Z"/><path class="cls-12" d="M24.87,369.36a.34.34,0,0,1,0-.1Z"/></g><path class="cls-14" d="M181.42,282.13s78.52-40.53,162.12,31.71c0,0-12,34.62-8.71,81.14l11.91-10.91s.52-47,6.94-69c0,0-76.7-78.55-172.26-37.73Z"/><path class="cls-14" d="M341.55,402.66s5.59-16.26,21.22-11.35S348.41,412.6,341.55,402.66Z"/><path class="cls-14" d="M212.22,456.59s4.08,33.27,25.6,46.7c0,0-12.44-1.62-20.78-16.64,0,0,1.86,28.58-8.72,10S212.22,456.59,212.22,456.59Z"/><path class="cls-14" d="M114,335.85s-24.75,35-30.94,35-21.77-24.13-21.77-24.13S63.47,373.47,85,388.06C85,388.06,111.24,349,114,335.85Z"/><g class="cls-15"><path class="cls-16" d="M195,331.31l2.6-35.39s20.47-13.37,39.52-7.5l.87.39L237.08,329Z"/></g><g class="cls-17"><path class="cls-18" d="M312.83,337.79l-2.59-35.39s-20.48-13.37-39.53-7.5l-.87.39.87,40.22Z"/></g><path class="cls-9" d="M515.41,183.32c-7.62-6.9-21-24.36-36.46-44.58-40.7-53.17-96.44-126-137.38-132.36-26.2-4.07-77.29.39-127.56,19.83-25.83,10-47.47,22.44-64.33,37-19.59,16.93-32.11,36.29-37.2,57.54-5,20.7-4.34,40.59,1.84,59.11,4.93,14.8,13.4,28.74,25.16,41.43a153.45,153.45,0,0,0,41.64,31.57c-9.64,55.59-13.14,110.91-13.79,122.35-8.21-6-34.37-25.23-46.3-36.77l-3.1-2.48c3.07-5.23,7.47-17.58,5.17-23.13a4.89,4.89,0,0,0-4.68-3.2c-7.23,0-13,12.77-15.15,18.43l-3.81-.72c-.86-5.39-3.51-18-9.88-22a8,8,0,0,0-7.12-.75,8.36,8.36,0,0,0-4.95,4.62A19.44,19.44,0,0,0,76.19,318a8.25,8.25,0,0,0-2-1.24,7,7,0,0,0-6.75.77c-4.81,3.13-5.81,10.3-2.89,20.75a7.19,7.19,0,0,0-.89-.15,6,6,0,0,0-5,2.16,2.49,2.49,0,0,0-.49.89l-.15.49a2.19,2.19,0,0,0-.11.67c-.27,22.83,17.39,41.64,21.33,45.54-1,.9-2,1.72-3,2.43L73.87,392,76,394c.59.56,14.38,13.54,28.18,21-21,6.64-40.73,5.79-54.13-2.33-18.11-11-24-33.92-16.93-66.38l0-.17-4.57-1.38-.07.16c-.77,2-18.66,48.56,2.34,86.16C43,453,65.89,467.05,98.77,473a179.55,179.55,0,0,0,31.52,2.93,143.78,143.78,0,0,0,25.82-2.28c-2.73,16.72-11.34,73.75-10.55,123.64l0,1.23,1,.71c.43.3,10.84,7.58,32,14L181,624.68a69.7,69.7,0,0,0-18.37-3.39c-17-.74-31.33,5.54-41.54,18.17L118,643.27l85.63,2.07h.27l-9.6-28.19a259.39,259.39,0,0,0,54.41,5.41,344.75,344.75,0,0,0,40-2.43l-.64,29.57,84.59-2.05H373L370,643.84c-10.22-12.65-25-18.81-42.81-17.85a77.36,77.36,0,0,0-21.21,4.27l-3.2-12c12.13-1.87,24.63-4.37,37.16-7.44l1.93-.47-.1-2c-.18-3.71-4.37-91.12-3-130.4a106.43,106.43,0,0,0,10.47,3.76,96.62,96.62,0,0,0,27.84,4.12,108.2,108.2,0,0,0,42.61-9.19c31.94-13.65,51.42-33,57.9-57.55,5.9-22.36-.39-44.82-6.7-59.73a137,137,0,0,0-15.21-27.17l-.11-.15-3.93,2.78.1.15c22,33.67,7.25,62.72-13.88,78.68-22.71,17.15-59.29,23.67-82.55,2.11A21.73,21.73,0,0,0,373.21,398c1.61-9-3-16-11.8-17.92a22.74,22.74,0,0,0-11.68.3c-.78-26.21,3.29-54.28,12.1-83.43,25,12.6,48.69,19,70.35,19a103.73,103.73,0,0,0,22.11-2.34c29.46-6.44,47.22-24.53,56.94-38.57C533.24,243.2,535.15,201.21,515.41,183.32ZM128.24,638.69c8.9-8.93,20.34-13.16,34-12.58a64.18,64.18,0,0,1,21,4.56l4.31,1.94-3.72-18c1.63.44,3.28.86,4.93,1.26l8.33,24.47ZM386.5,237.07l1.11,1,.93.81c.64.54,1.31,1,2,1.55q.5.36,1,.75c1,.72,2,1.42,3,2.08l3.06,1.84.32.17c.92.49,1.82,1,2.72,1.43s1.57.74,2.34,1.08l.64.29c.83.38,1.65.69,2.45,1l.45.17.81.3c.66.25,1.28.48,1.92.66,1.79.56,3.4,1.05,4.86,1.36s2.67.64,3.8.8c.73.13,1.35.22,1.85.29l.62.09,2.12.29-2-.89-.58-.26c-.46-.2-1-.45-1.69-.72s-1.25-.54-1.94-.86l-1.54-.7c-.9-.38-1.86-.86-2.87-1.36l-1.56-.77c-.58-.27-1.16-.58-1.76-.91l-.7-.38-.81-.43c-.59-.31-1.2-.63-1.79-1l-1.14-.66c-.51-.29-1.05-.6-1.56-.93l-2.75-1.74-2.76-1.91-2.74-2.06-1.07-.88c-.54-.44-1.09-.88-1.62-1.33l-.94-.84c-.56-.48-1.13-1-1.66-1.51l-.25-.24c-.75-.71-1.53-1.44-2.24-2.21l-.54-.57q-.35-.34-.66-.69l-1.16-1.29c-.41-.44-.79-.9-1.12-1.3l-1.09-1.3-.81-1c-.41-.53-.84-1.07-1.23-1.62-1.35-1.82-2.54-3.67-3.55-5.26s-2-3.33-2.82-5c-.95-1.85-1.6-3.2-2.12-4.39-.65-1.49-1.11-2.6-1.45-3.51l-.08-.22,8.45-.45,8.9-1c1.61-.15,3.14-.42,4.61-.68l1.71-.29,1.63-.27c3.3-.56,6.16-1.05,8.55-1.67,1.92-.44,3.55-.83,4.86-1.15l1.62-.39,2.29-.55-.07-.37-2.33.32-1.7.23c-1.33.17-3,.39-4.89.67s-4.12.54-6.65.78c-1.15.1-2.34.22-3.58.35-2.79.34-5.88.49-9.14.65l-4.14.22-1.84.1h-5.75l-4,0c-.68,0-1.36,0-2-.05l-8.46-.4c-.46,0-.93-.07-1.38-.12l-.78-.08c-1.23-.14-2.5-.25-3.73-.37-1.68-.15-3.43-.31-5.15-.54l-6.84-1c-.74-.11-1.52-.22-2.27-.4l-4.6-.94-1.44-.29c-1.05-.2-2.14-.41-3.2-.71l-6.95-1.76-8.06-2.51-3.41-1.25-1.63-.59c-.95-.34-1.94-.69-2.9-1.06l-6.68-2.79c-.47-.2-.93-.42-1.39-.65l-.78-.37-4.31-2.05c-.87-.42-1.73-.88-2.56-1.33-.55-.3-1.09-.59-1.64-.87L287,180c-1-.49-1.94-1-2.86-1.57l-4-2.34c-.57-.33-1.17-.7-1.94-1.2l-1.92-1.24c-4.64-2.95-9.29-6.27-14.22-10.14l-3.2-2.59c-.6-.49-1.19-1-1.76-1.5s-.84-.74-1.27-1.1c-1.44-1.2-2.79-2.45-4.1-3.65-.52-.48-1-1-1.54-1.42s-1.12-1.08-1.66-1.61l-.9-.88c-.82-.79-1.63-1.6-2.41-2.42L242.92,146l-2.08-2.26c-2.7-3-5-5.6-6.68-7.8-1.57-1.94-3-3.81-4-5.26-.88-1.22-1.33-1.91-1.34-1.92l-.32.18s.38.75,1.15,2.08l.11.19c.79,1.35,1.87,3.21,3.42,5.47,1.86,2.81,3.92,5.64,6.11,8.4,2.35,3,5.24,6.37,8.83,10.21,2.67,2.78,6.77,6.94,11.58,11,.73.66,1.53,1.31,2.29,1.93.34.27.69.55,1,.84s.8.65,1.21,1c.72.6,1.47,1.21,2.25,1.78,2.11,1.6,4.72,3.58,7.42,5.34A156.84,156.84,0,0,0,290.34,187l4.42,2.14.79.39c.47.23.95.46,1.44.68l6.84,2.93c1,.39,2,.77,3,1.13l1.64.6,3.51,1.27,8.32,2.51,7.17,1.76c2.22.54,4.49.94,6.68,1.33l2.84.52c.78.15,1.58.25,2.37.35l7.42.93.75.08,8,.54.78,0c.48,0,1,.07,1.44.07l8.63.06c.68,0,1.38,0,2.09,0h.26a4,4,0,0,0,.06.47,36,36,0,0,0,.7,3.84,46.88,46.88,0,0,0,1.38,4.9,56.77,56.77,0,0,0,2.25,5.6,60,60,0,0,0,3.26,5.92,54.62,54.62,0,0,0,4.24,5.88l.06.07c.72.86,1.46,1.75,2.26,2.58a314.33,314.33,0,0,0-19.76,43.91,324.28,324.28,0,0,0-10,32.69c-19.61-17.74-40.71-30.68-62.72-38.46a153.54,153.54,0,0,0-56.54-8.79,146,146,0,0,0-51.23,10.82c6.24-41.81,14.08-75.35,23.3-99.68a64.56,64.56,0,0,0,7.8-1.16l2-.43,3.86-1.06,3.69-1.25,3.45-1.41c.44-.19.87-.4,1.3-.61l.33-.16c1.91-.87,3.6-1.84,5.24-2.78l.64-.37,2.46-1.62c.68-.44,1.47-1,2.17-1.53l.86-.65c1-.75,1.83-1.39,2.52-2s1.13-1,1.55-1.39l.5-.46,1.74-1.61-2.11,1.11-.62.33c-.49.27-1.09.59-1.78,1l-.8.45-.91.45-1.29.66-.75.38c-.75.41-1.59.79-2.32,1.11l-2.58,1.19-1.46.6c-1.43.58-2.9,1.19-4.49,1.73l-.71.26-.89.32L222,166.16l-3.54,1-3.68.82-1.89.34c-2.27.42-4.79.75-7.7,1l-1.56.11-.89-.35-.16.41-1.27.07h0c-.53,0-1.06,0-1.59,0-.75,0-1.52.05-2.28,0-2.7,0-5.33-.16-7.54-.33-2.94-.27-5.12-.53-7-.85-2.34-.34-4.49-.77-6.28-1.15s-3.71-.84-5.29-1.25l-1-.28c-1.18-.33-2.19-.61-3.06-.89l-.47-.14c-.9-.29-1.62-.51-2.13-.7l-2.05-.72,1,.73a35.27,35.27,0,0,0,3.19,2,61.64,61.64,0,0,0,9,4.09c2.34.84,4.36,1.46,6.35,2a73,73,0,0,0,7.3,1.49l.56.08c1.09.15,2.21.3,3.35.39l2,.17,2,.09c.69,0,1.38.06,2.06.05h1.34c-7.06,19.17-13.35,43.92-18.69,73.59A151,151,0,0,1,143,218c-25.77-27.8-34.46-60.14-25.85-96.13,9-37.71,44-70.09,98.58-91.18C265.19,11.6,315.24,7.17,340.83,11.15c39,6.07,96.36,81,134.3,130.53,16.25,21.24,29.1,38,37,45.22,8.42,7.63,12.8,21.14,12,37.09-.81,16.54-6.82,33.68-16.92,48.27-7.82,11.3-31.39,38.74-75.4,38.74-18.94,0-41.69-5.09-68.58-18.74A327.31,327.31,0,0,1,386.5,237.07Zm-173.12,221,.15-.11-.06-.07c.61-1.25,1.28-2.55,2-3.84a85.63,85.63,0,0,1,11.22-15.52,88.14,88.14,0,0,1,6.84-6.83,89,89,0,0,1,7.55-6c1.41-1,2.73-1.86,4-2.64a24.45,24.45,0,0,1,4.18-2.11,3.25,3.25,0,0,1,.42-.12,1,1,0,0,1,.06.27,5.81,5.81,0,0,1-.25,2,21.6,21.6,0,0,1-1.74,4.31,52,52,0,0,1-5.22,8,92.53,92.53,0,0,1-6.28,7.26l-.82.86.6,1.15c1.14,2.15,2.33,4.44,3.65,7l.12.24c1.13,2.24,2.3,4.55,3.41,6.83,1.38,2.86,2.4,5,3.32,7.13a72.4,72.4,0,0,1,2.77,7.16c.2.66.35,1.22.46,1.74a8.55,8.55,0,0,1,.2,1.34l-.2,0a7.7,7.7,0,0,1-2.75-.78,22.07,22.07,0,0,1-3.06-1.77,37.8,37.8,0,0,1-5.67-4.79,43.76,43.76,0,0,1-4.72-5.78l-9.44-13.82,4.86,16c1.45,4.76,2.84,9.65,4.19,14.37l.9,3.14c.88,3.08,1.66,6,2.39,8.77.37,1.41.76,2.91,1.11,4.39l.26,1.09.2,1a1.35,1.35,0,0,1,0,.32l0,.45c0,.1,0,.22,0,.33a2.24,2.24,0,0,1,0,.46,2.08,2.08,0,0,1-.49,1.09,2,2,0,0,1-1.07.63,6.48,6.48,0,0,1-3.53-.22,15.44,15.44,0,0,1-3.74-1.76,23.81,23.81,0,0,1-3.42-2.62,33,33,0,0,1-5.56-6.84,39.09,39.09,0,0,1-2.13-3.95c-.2-.41-.38-.82-.56-1.24l-.36-.82-2.08-5.34.46,3.42c.47,3.4.77,6.65.92,9.66a47.14,47.14,0,0,1,0,4.76,13.47,13.47,0,0,1-.8,4.32,1.86,1.86,0,0,1-.2.37l-.08.15-.14.15a.27.27,0,0,1-.11.1.44.44,0,0,0-.08.07l-.31.08-.06,0-.11,0h0l-.14,0a2.19,2.19,0,0,1-.69-.24,8.25,8.25,0,0,1-2.83-2.79,18.45,18.45,0,0,1-2-4,25.42,25.42,0,0,1-1.19-4.39,39.78,39.78,0,0,1-.49-9.23,51,51,0,0,1,1.41-9.26,69.56,69.56,0,0,1,2.73-9C212,461.17,212.62,459.69,213.38,458.1Zm1.37,43.66ZM169,502c7.46-10.37,26.28-27.81,37.19-37.59L206,465c-.08.27-.17.53-.26.8-.31,1-.63,2.13-1,3.41-5,4.71-29.5,28.18-34.69,37.68s-8.14,80-8.7,94.76l-1.48-.68C159.8,586.46,159.6,515.14,169,502Zm4,6.45c4.16-7.63,22.47-25.71,30.59-33.55a52.92,52.92,0,0,0-.55,5.76,39,39,0,0,0,.86,10.22,24.68,24.68,0,0,0,4.15,9.6,11.51,11.51,0,0,0,4.34,3.68,5.31,5.31,0,0,0,1.67.43l.44,0a5.51,5.51,0,0,0,.57-.06l.27,0,.15,0,.37-.12.21-.09h0l.43-.24a1.45,1.45,0,0,0,.35-.24,4,4,0,0,0,.66-.7l.26-.37.19-.35a4.09,4.09,0,0,0,.31-.73,15.56,15.56,0,0,0,.61-5.32,47.45,47.45,0,0,0-.47-5c-.08-.51-.16-1.05-.27-1.62l.46.95a34.58,34.58,0,0,0,2.33,4.09,30.28,30.28,0,0,0,2.94,3.75,21.32,21.32,0,0,0,8,5.65,12.77,12.77,0,0,0,2.56.66,7.75,7.75,0,0,0,2.88-.06,5.59,5.59,0,0,0,2.91-1.52,5.74,5.74,0,0,0,1.59-2.88,5.6,5.6,0,0,0,.18-1.1c0-.13,0-.27,0-.43v-.75a6.68,6.68,0,0,0,0-.71v0c1.77.55,4.49,1.36,7.91,2.32s7.43,2,11.63,3.05c1.53.38,3.06.74,4.68,1.11l1.93.45,2.39.52c1.45.32,3,.65,4.45.95.72.13,1.42.28,2.13.42,1.56.31,3.17.63,4.75.89l1.18.21c1.9.34,3.7.66,5.5.92l1.08.16c1.81.28,3.52.54,5.19.73l2.08.26c1.25.17,2.42.32,3.56.41l4.77.45c.93.07,1.78.12,2.55.16l1.13.07,3.21.19,0-.37-3.19-.38-1.14-.14c-.75-.08-1.59-.18-2.51-.31l-4.72-.73c-1.11-.15-2.26-.37-3.48-.61l-2.07-.38c-1.64-.29-3.33-.65-5.11-1l-1.06-.22c-1.76-.36-3.52-.78-5.38-1.23l-1.17-.28c-1.54-.35-3.11-.76-4.62-1.16l-2.11-.55c-1.45-.38-2.9-.79-4.31-1.19l-2.38-.66-1.89-.56c-1.58-.47-3.07-.92-4.55-1.38-4.11-1.28-8-2.56-11.32-3.7-3.49-1.2-6.23-2.21-7.92-2.85l-2.17-.82c-.11-.53-.22-1.06-.34-1.59-.62-2.87-1.31-5.8-2.08-9l-.28-1.13c-.27-1.11-.54-2.22-.83-3.33l-.68-2.55a36,36,0,0,0,4.32,3.35A27.73,27.73,0,0,0,245,480a12,12,0,0,0,4.92,1.11,5.5,5.5,0,0,0,1.63-.28,4.07,4.07,0,0,0,.87-.37l.12-.06a2,2,0,0,0,.32-.2,6,6,0,0,0,.49-.39l.24-.21.25-.29a3.6,3.6,0,0,0,.73-1.31,5.47,5.47,0,0,0,.23-1.78,12.25,12.25,0,0,0-.38-2.46c-.16-.64-.36-1.31-.63-2.09a75.33,75.33,0,0,0-3.16-7.59c-1-2.23-2.24-4.58-3.62-7.19s-2.61-4.81-3.88-7c-1.11-1.94-2.29-3.91-3.49-5.87,2-2.45,3.7-4.72,5.18-6.92.28-.42.55-.84.82-1.26v0l1,.58c2.19,1.33,4.92,2.94,7.68,4.52,4,2.27,7.56,4.26,11,6.11,1.3.71,2.62,1.4,4,2.12l2.27,1.18,6.54,3.3,2.32,1.11c1.41.69,2.86,1.39,4.29,2L287,457.8c1.43.66,2.79,1.29,4.17,1.87.73.3,1.45.62,2.15.92,1.37.6,2.67,1.16,4,1.66.7.27,1.38.55,2,.82,1.22.49,2.37.95,3.48,1.36l4.71,1.72c.92.33,1.78.61,2.54.85l1.13.37,3.2,1,.12-.35-3.13-1.22-1.12-.44c-.73-.28-1.57-.6-2.46-1l-4.59-2c-1.08-.46-2.19-1-3.37-1.55l-2-.93c-1.25-.56-2.5-1.19-3.82-1.86L292,458.05c-1.33-.64-2.63-1.34-4-2.07-.74-.4-1.49-.79-2.24-1.18-1.36-.72-2.74-1.49-4.08-2.23l-2.29-1.27-6.3-3.63-2.17-1.3c-1.34-.8-2.61-1.55-3.86-2.34-3.3-2-6.76-4.19-10.55-6.66-2.69-1.75-5.29-3.49-7.33-4.89l-1-.73c.68-1.25,1.22-2.31,1.69-3.34a25.63,25.63,0,0,0,1.69-4.82,7.91,7.91,0,0,0,.2-2.78,3.12,3.12,0,0,0-.24-.83,2.32,2.32,0,0,0-.34-.52.71.71,0,0,0-.11-.12l0,0a.09.09,0,0,0,0-.05h0l0,0a.58.58,0,0,0-.18-.15l-.12-.06a1,1,0,0,0-.28-.11l-.17,0a1.13,1.13,0,0,0-.31,0,3.42,3.42,0,0,0-.39.05l-.07,0a6.19,6.19,0,0,0-.71.21,29.39,29.39,0,0,0-4.48,2.34c-1.3.81-2.65,1.7-4.11,2.75-2.89,2-5.56,4.16-7.8,6s-4.75,4.11-7.33,6.59a86.88,86.88,0,0,0-12.75,15.23,58.51,58.51,0,0,0-3,5.17c-7.74,6.78-33.56,29.78-42.92,42.8-9.91,13.79-9.86,84.37-9.73,99.25-3.1-1.57-5.19-2.81-6.22-3.45-.65-51.81,8.84-111.53,10.81-123.33a124.15,124.15,0,0,0,13.56-3.87,113.52,113.52,0,0,0,47-30.9c15.84-17.36,23.85-36.94,23.63-47.45,1,.07,2,.1,3,.1a45.11,45.11,0,0,0,4.93-.27c3,5.89,18.22,34.93,43.47,59.21,11.89,11.43,24.44,20.32,37.29,26.42-1.52,35.68,2,114.83,2.79,130.79C271,622.38,223.71,618.52,195.58,612.5a176.43,176.43,0,0,1-30.87-9.44C165.77,573.62,168.87,516.15,173.06,508.48ZM345,382.53A27,27,0,0,0,334.83,395c-16.26-14.18-30.29-20-39.21-22.3a58.53,58.53,0,0,0-14.81-2,40.42,40.42,0,0,0-6.07.43A11.74,11.74,0,0,0,274,369a26.19,26.19,0,0,0-14.13-10,42,42,0,0,0-11.49-1.54c-12.63,0-23.31,5.19-26.1,12.64A40.66,40.66,0,0,0,204,366h-.48c-9.83,0-20.38,2.75-31.34,8.18.68-11.55,3.3-50.93,9.59-94.83,4-1.88,24-10.72,52.23-11.67,29.15-1,73.25,6.52,117.8,47.77C346.46,338.82,344.15,361.38,345,382.53ZM248.34,362.3c11.91,0,22,5.34,22,11.66s-10.06,11.66-22,11.66-22-5.34-22-11.66S236.42,362.3,248.34,362.3Zm-26.71,13c.86,6.85,8.24,12.51,18.85,14.44.66,7.51-5.94,26.79-22.35,44.79C202.05,452.17,165.27,480,99.62,468.2,68.24,462.57,46.51,449.3,35,428.77c-7.45-13.33-10.52-29.56-9.14-48.27,2.48,20.65,13,31.14,21.62,36.34,8,4.83,18.21,7.39,29.6,7.39,23.29,0,49.66-10.39,70.53-27.78,25.38-21.15,44.43-25.59,56-25.59C213.33,370.87,219.4,373.93,221.63,375.31ZM275,376c2.73-.46,9.87-1.18,19.81,1.5,12.21,3.28,31.33,12.46,53.06,37.49,23.87,27.5,66,22.89,92.94,2.54,12.93-9.76,21.87-22.75,25.17-36.57a54.6,54.6,0,0,0,1.23-17.82c5.7,14.08,11.08,34.62,5.76,54.77-6.09,23-24.63,41.29-55.13,54.33-41.47,17.73-81,8.91-117.62-26.21-23.24-22.31-37.84-48.74-41.92-56.66C267.44,387.13,273.81,382,275,376Zm63.73,22.52c1.47-4.18,7.19-16.91,21.7-13.71,9.2,2,8.51,10,8.08,12.35-1.34,7.53-8.29,14.8-17.62,13.95C346.85,406.51,342.76,402.28,338.68,398.47ZM88.33,398c.61-.52,1.36-1.17,2.17-1.93l1.38-1.29,1.48-1.47c.72-.7,1.43-1.47,2.18-2.28.34-.38.69-.75,1.06-1.14l1.88-2.18c.5-.58,1-1.18,1.49-1.81l1.7-2.16c.38-.48.74-1,1.09-1.47.19-.28.38-.55.58-.82l.59-.81c.35-.5.72-1,1.06-1.53l1.56-2.42c.75-1.1,1.42-2.27,2.06-3.41.29-.51.58-1,.88-1.52.08-.15.16-.3.25-.44s.3-.53.44-.8l1.85-3.69.21-.42q.21-.39.39-.78l1.51-3.53c.59-1.29,1-2.55,1.47-3.77l.19-.56.5-1.39c.3-.81.58-1.58.77-2.3l1.53-5.41-.35-.11-1.92,5.27c-.24.69-.57,1.42-.92,2.19-.19.44-.4.89-.6,1.36l-.23.54c-.51,1.16-1,2.36-1.71,3.59l-1.74,3.36-.43.73-2.32,3.88c-.15.25-.32.49-.48.73l-.28.41c-.33.48-.65,1-1,1.46-.7,1-1.42,2.13-2.22,3.14l-1.7,2.24c-.36.48-.75.94-1.13,1.39l-.63.76-.63.75c-.36.45-.74.91-1.14,1.33l-1.8,2c-.51.57-1,1.11-1.57,1.63l-1.95,2c-.38.34-.75.69-1.11,1-.77.72-1.5,1.4-2.22,2l-1.21,1-1.7,1.39c-.79.63-1.49,1.15-2.1,1.61l-.21.15-.85.61c-1.08-.92-2.15-1.85-3.13-2.72,16.22-13.65,30.21-43,34.28-52.09l2.14,1.71c11.89,11.48,36.1,29.4,46.21,36.75a158.43,158.43,0,0,0-19.42,14,122.21,122.21,0,0,1-34.05,20.08c-7.87-3.54-16.46-9.89-22.35-14.66ZM72.12,350.2a1.92,1.92,0,0,0,1-1.09,2.06,2.06,0,0,0-.11-1.63c-4.43-10-7.87-22.73-3-25.9a2.23,2.23,0,0,1,2.27-.36c1.8.74,3.75,3.51,5.64,8,1.17,2.89,2,4.5,2.82,6.21.36.73.73,1.47,1.15,2.34a1.51,1.51,0,0,0,1.33,1,1.82,1.82,0,0,0,1.55-.69,2,2,0,0,0,.36-1.8c-.57-2-1.48-5.07-2.54-8.36-2-6.3-2.33-13.14-.71-16.65a3.66,3.66,0,0,1,2.15-2.1,3.25,3.25,0,0,1,3,.3c4.23,2.62,6.85,13.25,7.75,19.19l-.17.19c-.57.68-1.46,1.73-2.53,3-2.39,2.93-5,6.4-7.24,9.52-1.2,1.69-2.41,3.46-3.59,5.26-.59.87-1.13,1.73-1.59,2.46s-1,1.51-1.37,2.23l-1.14,1.9-1.57,2.78.31.2,1.91-2.54L79.16,352c.47-.6,1-1.24,1.64-2s1.18-1.42,1.87-2.21c1.38-1.61,2.79-3.19,4.19-4.69,2.56-2.77,5.56-5.82,8.25-8.36,1.19-1.13,2.18-2,2.92-2.71l8.38,1.57.69-1.95c2.52-7.19,7.86-17.15,11.32-17.15h.11s0,0,.11.21c1.43,3.44-2.17,14.18-4.58,18.48-.16.34-15.37,34.54-31.41,51.35-3.63-3.62-19.86-21-20-41.44a.88.88,0,0,1,.52-.13h.09c1.71.07,3.54,2,5.44,5.74C69,349.4,70.52,350.9,72.12,350.2ZM293,644.76l.55-25.22,4.37-.59,4.71,17.65.06.21,2.57-1.12c.35-.16,35-14.79,57.5,7.38Z"/><path class="cls-9" d="M234.49,286.34a21.63,21.63,0,0,0-2.7-.93,25,25,0,0,0-3.32-.67c-.6-.07-1.22-.13-1.85-.17s-1.27,0-1.93,0-1.31.1-2,.2-1.33.23-2,.38c-1.33.3-2.68.63-4,1s-2.63.77-3.89,1.21-2.49.95-3.65,1.48a52.71,52.71,0,0,0-6.12,3.22,41.33,41.33,0,0,0-5.49,3.85l.25.37s.57-.33,1.61-.84,2.51-1.23,4.34-2c.91-.37,1.91-.74,3-1.11s2.17-.75,3.35-1.08,2.38-.64,3.61-.94,2.5-.54,3.77-.72a32.59,32.59,0,0,1,3.78-.35c.63,0,1.25,0,1.85,0s1.21,0,1.8,0,1.16,0,1.72-.07,1.12,0,1.66-.08l3.06-.1c1,0,1.84,0,2.65-.06h1.12c.35,0,.68,0,1,0,1.17,0,1.88-.06,1.88-.06l.14-.42a18.15,18.15,0,0,0-1.62-1.06C235.94,287,235.27,286.7,234.49,286.34Z"/><path class="cls-9" d="M271.86,295.44c.29,0,.62,0,1,0H274c.81.05,1.69,0,2.65.07l3.06.1,1.66.08c.56,0,1.14.06,1.72.07s1.19,0,1.8,0,1.22,0,1.85,0a30.53,30.53,0,0,1,3.78.35c1.27.18,2.53.44,3.77.72s2.45.59,3.61.94,2.29.72,3.35,1.07,2.06.74,3,1.12c1.83.73,3.3,1.45,4.34,1.95s1.61.84,1.61.84l.25-.36a41.33,41.33,0,0,0-5.49-3.85,52.67,52.67,0,0,0-6.12-3.23c-1.16-.52-2.38-1-3.65-1.47s-2.56-.87-3.89-1.22-2.67-.7-4-1c-.67-.14-1.34-.27-2-.37s-1.33-.15-2-.21-1.3,0-1.93,0-1.25.1-1.85.17a23.46,23.46,0,0,0-3.32.67,20.79,20.79,0,0,0-2.71.93c-.77.36-1.44.67-2,1a19.34,19.34,0,0,0-1.62,1.07l.14.42S270.69,295.44,271.86,295.44Z"/><path class="cls-9" d="M343.83,398.32a5.47,5.47,0,0,0-.29,1l.77-.63c.23-.2.54-.42.86-.69s.7-.55,1.12-.84.85-.61,1.32-.93,1-.62,1.49-1,1-.63,1.63-.89l.84-.43.88-.37a16.24,16.24,0,0,1,1.76-.66c.59-.23,1.2-.33,1.78-.52s1.16-.23,1.71-.37a14.3,14.3,0,0,1,1.59-.24c.5-.06,1-.2,1.39-.2s.79-.07,1.1-.1c.62-.07,1-.15,1-.15s-.31-.18-.89-.44c-.29-.12-.65-.29-1.07-.44a7.3,7.3,0,0,0-1.44-.39,9.52,9.52,0,0,0-1.77-.27,15.12,15.12,0,0,0-2,0c-.35,0-.7.08-1.07.13a6.86,6.86,0,0,0-1.08.21,14.12,14.12,0,0,0-2.14.71l-1,.46c-.33.18-.64.39-1,.57a7.28,7.28,0,0,0-.91.62c-.29.22-.57.43-.84.66a14.57,14.57,0,0,0-1.42,1.41A12,12,0,0,0,345,396a11.48,11.48,0,0,0-.75,1.3A10.35,10.35,0,0,0,343.83,398.32Z"/><path class="cls-9" d="M190,498.83A7.16,7.16,0,1,0,197.1,506,7.16,7.16,0,0,0,190,498.83Zm0,9.85a2.7,2.7,0,1,1,2.69-2.7A2.7,2.7,0,0,1,190,508.68Z"/><path class="cls-9" d="M179.16,548.55a7.15,7.15,0,1,0,7.15,7.15A7.16,7.16,0,0,0,179.16,548.55Zm0,9.85a2.7,2.7,0,1,1,2.7-2.7A2.7,2.7,0,0,1,179.16,558.4Z"/><path class="cls-9" d="M239.19,552.3a7.15,7.15,0,1,0,7.15,7.15A7.16,7.16,0,0,0,239.19,552.3Zm0,9.85a2.7,2.7,0,1,1,2.7-2.7A2.7,2.7,0,0,1,239.19,562.15Z"/><path class="cls-9" d="M242.94,504a7.15,7.15,0,1,0,7.15,7.15A7.16,7.16,0,0,0,242.94,504Zm0,9.85a2.7,2.7,0,1,1,2.7-2.7A2.7,2.7,0,0,1,242.94,513.84Z"/><path class="cls-9" d="M214,330.29c-4.21,0-7.39,5-7.39,11.6s3.18,11.61,7.39,11.61,7.38-5,7.38-11.61S218.21,330.29,214,330.29Z"/><path class="cls-9" d="M295.6,337.79c-4.21,0-7.38,5-7.38,11.61s3.17,11.6,7.38,11.6,7.39-5,7.39-11.6S299.81,337.79,295.6,337.79Z"/></g></g></svg>