<svg xmlns="http://www.w3.org/2000/svg" viewBox="0 0 1313.93 941.57"><defs><style>.cls-1,.cls-2{fill:#fff;}.cls-2{stroke:#000;stroke-miterlimit:10;stroke-width:80px;}</style></defs><title>logo</title><g id="Layer_4" data-name="Layer 4"><path class="cls-1" d="M51.55,911.91V920q0,21.54-20.3,21.53H20.3Q0,941.57,0,920V836.36q0-21.54,20.3-21.54h11q20.3,0,20.3,21.54v14.3H34.6V837.59q0-7.41-7.59-7.41H23.66q-6.72,0-6.71,7.41V918.8q0,7.41,6.71,7.41h4.23q6.72,0,6.71-7.41v-6.89Z"/><path class="cls-1" d="M128.7,814.82V917.56q0,24-20.48,24H93.92q-20.31,0-20.3-24.18V814.82H90.56v103.1q0,8.3,7.42,8.29h6.88q6.89,0,6.89-8.29V814.82Z"/><path class="cls-1" d="M153.41,814.82H184.3q20.49,0,20.48,21.71v37.61q0,21.54-20.3,21.53H170.36v45.9h-17Zm17,65.49h10.77q6.7,0,6.71-7.41V837.59q0-7.41-7.6-7.41h-9.88Z"/><path class="cls-1" d="M266.39,876.43q14,3.89,13.95,14.48v31.77q0,18.9-19.24,18.89H227V814.82H256q22.59,0,22.6,22.95v24.36q0,10.95-12.19,13.42ZM244,868.31h7.95q9.71,0,9.71-9.18V839.36q0-9.18-7.59-9.18H244Zm0,57.9h12.71q6.72,0,6.71-5.47V892.67q0-9-10.06-9H244Z"/><path class="cls-1" d="M322.88,941.57q-20.47,0-20.47-21.53V836.53q0-21.71,20.3-21.71H339q20.3,0,20.3,21.71V920q0,21.54-20.48,21.53ZM327,926.21h8.65q6.7,0,6.7-7.41V837.59q0-7.41-7.59-7.41h-7.94q-7.41,0-7.42,7.41V918.8Q319.35,926.21,327,926.21Z"/><path class="cls-1" d="M399.15,941.57H382.2v-105q0-21.71,20.3-21.71h12.71q20.31,0,20.3,21.71v105H418.57V895.14H399.15Zm19.42-61.78v-42.2q0-7.41-7.42-7.41h-4.59q-7.41,0-7.41,7.41v42.2Z"/><path class="cls-1" d="M459.35,814.82h33.18q19.43,0,19.42,21.71v31.25q0,16.59-10.06,21l11.83,52.78H497.65l-11.12-51.19H476.29v51.19H459.35Zm16.94,61.08h11.13c5.05,0,7.59-3.06,7.59-9.18V839.36c0-6.12-2.54-9.18-7.59-9.18H476.29Z"/><path class="cls-1" d="M534.9,941.57V814.82h29.48q23.83,0,23.84,24.36v84q0,18.38-20.3,18.36Zm17-15.36h12.71q6.71,0,6.71-5.64V839.36q0-9.18-7.59-9.18H551.85Z"/><path class="cls-2" d="M588.22,724H424a69.27,69.27,0,0,1-69.27-69.28V144.28A69.27,69.27,0,0,1,424,75H588.22"/><circle cx="540.22" cy="399.5" r="37.5"/><path class="cls-1" d="M757,911.91V920q0,21.54-20.3,21.53h-11q-20.29,0-20.3-21.53V836.36q0-21.54,20.3-21.54h11q20.29,0,20.3,21.54v14.3H740.08V837.59q0-7.41-7.59-7.41h-3.35q-6.72,0-6.71,7.41V918.8q0,7.41,6.71,7.41h4.23q6.71,0,6.71-7.41v-6.89Z"/><path class="cls-1" d="M805.75,941.57q-20.47,0-20.48-21.53V836.53q0-21.71,20.31-21.71h16.24q20.29,0,20.3,21.71V920q0,21.54-20.48,21.53Zm4.06-15.36h8.65q6.72,0,6.71-7.41V837.59q0-7.41-7.59-7.41h-7.94q-7.42,0-7.42,7.41V918.8Q802.22,926.21,809.81,926.21Z"/><path class="cls-1" d="M907.44,889.32l15.71-74.5h18.71V941.57H924.92l1.76-83-12.71,60H900.91l-12.71-60,1.76,83H873V814.82h18.72Z"/><path class="cls-1" d="M1013,876.43q13.93,3.89,13.94,14.48v31.77q0,18.9-19.24,18.89H973.64V814.82h29q22.6,0,22.6,22.95v24.36q0,10.95-12.18,13.42Zm-22.42-8.12h7.94q9.71,0,9.71-9.18V839.36q0-9.18-7.59-9.18H990.59Zm0,57.9h12.71q6.71,0,6.71-5.47V892.67q0-9-10.07-9h-9.35Z"/><path class="cls-1" d="M1057,941.57V814.82h17V941.57Z"/><path class="cls-1" d="M1140.82,876.08V814.82h17V941.57h-17V916.33l-18.19-57.73v83h-16.94V814.82h16.94Z"/><path class="cls-1" d="M1189.54,941.57V814.82h42v15.36h-25.07v38.48h22.24V884h-22.24v42.19h25.07v15.36Z"/><path class="cls-1" d="M1259.63,814.82h33.19q19.41,0,19.41,21.71v31.25q0,16.59-10.06,21L1314,941.57h-16.07l-11.12-51.19h-10.24v51.19h-16.94Zm16.94,61.08h11.13c5,0,7.59-3.06,7.59-9.18V839.36c0-6.12-2.54-9.18-7.59-9.18h-11.13Z"/><path class="cls-2" d="M705.48,75H869.7A69.28,69.28,0,0,1,939,144.28V654.72A69.28,69.28,0,0,1,869.7,724H705.48"/><circle cx="753.48" cy="399.5" r="37.5"/></g></svg>